<svg width="55.99999999999999" height="55.99999999999999" xmlns="http://www.w3.org/2000/svg">

 <g>
  <title>background</title>
  <rect fill="none" id="canvas_background" height="402" width="582" y="-1" x="-1"/>
 </g>
 <g>
  <title>Layer 1</title>
  <g id="svg_1">
   <path id="svg_2" fill="#E9E9E0" d="m36.985,0l-29.022,0c-0.808,0 -1.463,0.655 -1.463,1.926l0,53.074c0,0.345 0.655,1 1.463,1l40.074,0c0.808,0 1.463,-0.655 1.463,-1l0,-42.022c0,-0.696 -0.093,-0.92 -0.257,-1.085l-11.636,-11.636c-0.165,-0.164 -0.389,-0.257 -0.622,-0.257z"/>
   <polygon id="svg_3" fill="#D9D7CA" points="37.5,0.151 37.5,12 49.349,12  "/>
   <path id="svg_4" fill="#8697CB" d="m18.5,13l-6,0c-0.552,0 -1,-0.448 -1,-1s0.448,-1 1,-1l6,0c0.552,0 1,0.448 1,1s-0.448,1 -1,1z"/>
   <path id="svg_5" fill="#8697CB" d="m21.5,18l-9,0c-0.552,0 -1,-0.448 -1,-1s0.448,-1 1,-1l9,0c0.552,0 1,0.448 1,1s-0.448,1 -1,1z"/>
   <path id="svg_6" fill="#8697CB" d="m25.5,18c-0.26,0 -0.52,-0.11 -0.71,-0.29c-0.18,-0.19 -0.29,-0.45 -0.29,-0.71c0,-0.26 0.11,-0.52 0.29,-0.71c0.37,-0.37 1.05,-0.37 1.42,0c0.18,0.19 0.29,0.45 0.29,0.71c0,0.26 -0.11,0.52 -0.29,0.71c-0.19,0.18 -0.45,0.29 -0.71,0.29z"/>
   <path id="svg_7" fill="#8697CB" d="m37.5,18l-8,0c-0.552,0 -1,-0.448 -1,-1s0.448,-1 1,-1l8,0c0.552,0 1,0.448 1,1s-0.448,1 -1,1z"/>
   <path id="svg_8" fill="#8697CB" d="m12.5,33c-0.26,0 -0.52,-0.11 -0.71,-0.29c-0.18,-0.19 -0.29,-0.45 -0.29,-0.71c0,-0.26 0.11,-0.52 0.29,-0.71c0.37,-0.37 1.05,-0.37 1.42,0c0.18,0.19 0.29,0.44 0.29,0.71c0,0.26 -0.11,0.52 -0.29,0.71c-0.19,0.18 -0.45,0.29 -0.71,0.29z"/>
   <path id="svg_9" fill="#8697CB" d="m24.5,33l-8,0c-0.552,0 -1,-0.448 -1,-1s0.448,-1 1,-1l8,0c0.552,0 1,0.448 1,1s-0.448,1 -1,1z"/>
   <path id="svg_10" fill="#8697CB" d="m43.5,18l-2,0c-0.552,0 -1,-0.448 -1,-1s0.448,-1 1,-1l2,0c0.552,0 1,0.448 1,1s-0.448,1 -1,1z"/>
   <path id="svg_11" fill="#8697CB" d="m34.5,23l-22,0c-0.552,0 -1,-0.448 -1,-1s0.448,-1 1,-1l22,0c0.552,0 1,0.448 1,1s-0.448,1 -1,1z"/>
   <path id="svg_12" fill="#8697CB" d="m43.5,23l-6,0c-0.552,0 -1,-0.448 -1,-1s0.448,-1 1,-1l6,0c0.552,0 1,0.448 1,1s-0.448,1 -1,1z"/>
   <path id="svg_13" fill="#8697CB" d="m16.5,28l-4,0c-0.552,0 -1,-0.448 -1,-1s0.448,-1 1,-1l4,0c0.552,0 1,0.448 1,1s-0.448,1 -1,1z"/>
   <path id="svg_14" fill="#8697CB" d="m30.5,28l-10,0c-0.552,0 -1,-0.448 -1,-1s0.448,-1 1,-1l10,0c0.552,0 1,0.448 1,1s-0.448,1 -1,1z"/>
   <path id="svg_15" fill="#8697CB" d="m43.5,28l-9,0c-0.552,0 -1,-0.448 -1,-1s0.448,-1 1,-1l9,0c0.552,0 1,0.448 1,1s-0.448,1 -1,1z"/>
   <path id="svg_16" fill="#0096E6" d="m48.037,56l-40.074,0c-0.808,0 -1.463,-0.655 -1.463,-1.463l0,-15.537l43,0l0,15.537c0,0.808 -0.655,1.463 -1.463,1.463z"/>
   <text xml:space="preserve" text-anchor="start" font-family="Helvetica, Arial, sans-serif" font-size="15" id="svg_36" y="53.095004" x="17.239175" stroke-width="0" stroke="#000" fill="#ffffff">MD</text>
  </g>
  <g id="svg_21"/>
  <g id="svg_22"/>
  <g id="svg_23"/>
  <g id="svg_24"/>
  <g id="svg_25"/>
  <g id="svg_26"/>
  <g id="svg_27"/>
  <g id="svg_28"/>
  <g id="svg_29"/>
  <g id="svg_30"/>
  <g id="svg_31"/>
  <g id="svg_32"/>
  <g id="svg_33"/>
  <g id="svg_34"/>
  <g id="svg_35"/>
 </g>
</svg>